<?xml version="1.0" encoding="UTF-8"?>
<svg id="Layer_1" data-name="Layer 1" xmlns="http://www.w3.org/2000/svg" xmlns:xlink="http://www.w3.org/1999/xlink" viewBox="0 0 377.09 400.2">
  <defs>
    <style>
      .cls-1 {
        fill: none;
        stroke: #231f20;
        stroke-miterlimit: 10;
        stroke-width: 8px;
      }

      .cls-2 {
        fill: url(#Orange_Yellow);
      }

      .cls-3 {
        fill: #231f20;
      }
    </style>
    <linearGradient id="Orange_Yellow" data-name="Orange, Yellow" x1="4" y1="200.1" x2="373.09" y2="200.1" gradientUnits="userSpaceOnUse">
      <stop offset="0" stop-color="#fff33b"/>
      <stop offset=".04" stop-color="#fee62d"/>
      <stop offset=".12" stop-color="#fdd51b"/>
      <stop offset=".2" stop-color="#fdca0f"/>
      <stop offset=".28" stop-color="#fdc70c"/>
      <stop offset=".67" stop-color="#f3903f"/>
      <stop offset=".89" stop-color="#ed683c"/>
      <stop offset="1" stop-color="#e93e3a"/>
    </linearGradient>
  </defs>
  <g>
    <path class="cls-2" d="m367.1,256.16c14.97,25.31-1.87,57.47-10,73-6.12,11.7-23.29,40.1-55,56-66.6,33.4-145.55-14.31-241-72-7.82-4.72-28.8-17.75-43-43-5.18-9.22-22.65-40.29-9-62,9.43-15,28.84-17.81,44-20,11.58-1.68,41.92-6.06,59,11,19.3,19.28,6.51,50.83,16,54,11.37,3.8,48.27-35.31,51-83,2.22-38.78-20.01-50.95-16-97,1.47-16.91,3.48-39.97,21-55C208.2-2.51,252.69-.31,274.1,23.16c17.21,18.86,14.35,45.83,12,68-2.62,24.68-10.98,43.73-19,62-15.73,35.82-28.37,46.73-27,71,.38,6.64,1.42,25.07,12,30,14.92,6.95,29.65-21.82,61-24,19.81-1.38,43.4,8.07,54,26Z"/>
    <path class="cls-1" d="m61.1,313.16c-7.82-4.72-28.8-17.75-43-43-5.18-9.22-22.65-40.29-9-62,9.43-15,28.84-17.81,44-20,11.58-1.68,41.92-6.06,59,11,19.3,19.28,6.51,50.83,16,54,11.37,3.8,48.27-35.31,51-83,2.22-38.78-20.01-50.95-16-97,1.47-16.91,3.48-39.97,21-55C208.2-2.51,252.69-.31,274.1,23.16c17.21,18.86,14.35,45.83,12,68-2.62,24.68-10.98,43.73-19,62-15.73,35.82-28.37,46.73-27,71,.38,6.64,1.42,25.07,12,30,14.92,6.95,29.65-21.82,61-24,19.81-1.38,43.4,8.07,54,26,14.97,25.31-1.87,57.47-10,73-6.12,11.7-23.29,40.1-55,56-66.6,33.4-145.55-14.31-241-72Z"/>
  </g>
  <path class="cls-3" d="m163.61,73.09c16.38,5.73,33.66,8.69,51.01,8.9,15.74.19,31.56-1.48,47.25.31,8.48.96,16.87,3.16,24.41,7.23,2.83,1.53,5.36-2.79,2.52-4.32-14.07-7.59-30.18-8.85-45.88-8.72-16.51.14-32.95,1.33-49.37-1.13-9.74-1.46-19.32-3.85-28.61-7.09-1.27-.45-2.73.51-3.08,1.75-.38,1.38.47,2.63,1.75,3.08h0Z"/>
  <path class="cls-3" d="m232.1,5.1c-1.65,14-3.31,28-4.96,42-.16,1.34,1.26,2.5,2.5,2.5,1.48,0,2.34-1.15,2.5-2.5,1.65-14,3.31-28,4.96-42,.16-1.34-1.26-2.5-2.5-2.5-1.48,0-2.34,1.15-2.5,2.5h0Z"/>
</svg>